# xmcd CD database file
#
# Track frame offsets:
#	150
#	17556
#	28065
#	34794
#	47011
#	59182
#	70466
#	78042
#	90400
#	99549
#	117353
#	135993
#	147516
#	161992
#	173942
#	185394
#	202643
#	220140
#	228152
#	238990
#	242508
#	257046
#	268575
#	280979
#	288843
#
# Disc length: 4115 seconds
#
# Revision: 0
# Processed by: cddbd v1.5.2PL0 Copyright (c) Steve Scherf et al.
# Submitted via: CDex 1.79
#
DISCID=66101119
DTITLE=Christian Kyhl and Peter Friis Nielsen - Ping Pong - cd 1 Red
DYEAR=1999
DGENRE=Jazz
TTITLE0=1
TTITLE1=2
TTITLE2=3
TTITLE3=4
TTITLE4=5
TTITLE5=6
TTITLE6=7
TTITLE7=8
TTITLE8=9
TTITLE9=10
TTITLE10=11
TTITLE11=12
TTITLE12=13
TTITLE13=14
TTITLE14=15
TTITLE15=16
TTITLE16=17
TTITLE17=18
TTITLE18=19
TTITLE19=20
TTITLE20=21
TTITLE21=22
TTITLE22=23
TTITLE23=24
TTITLE24=25
EXTD=YEAR: 1999
EXTT0=
EXTT1=
EXTT2=
EXTT3=
EXTT4=
EXTT5=
EXTT6=
EXTT7=
EXTT8=
EXTT9=
EXTT10=
EXTT11=
EXTT12=
EXTT13=
EXTT14=
EXTT15=
EXTT16=
EXTT17=
EXTT18=
EXTT19=
EXTT20=
EXTT21=
EXTT22=
EXTT23=
EXTT24=
PLAYORDER=
